<svg id="レイヤー_1" data-name="レイヤー 1" xmlns="http://www.w3.org/2000/svg" width="146px" height="45px" viewBox="0 0 130 40"><defs><style>.cls-1{fill:#595757;}.cls-2{fill:#005bab;}</style></defs><title>名称未設定-2</title><path class="cls-1" d="M23.3,32.5H22.2c0,.8.1,1.8.1,2.7v1.8c0,.9,0,1.9-.1,2.7h1.2c0-.9-.1-1.8-.1-2.7V35.2C23.3,34.3,23.3,33.4,23.3,32.5Z"/><path class="cls-1" d="M31,32.5h-.8c.1,1.6.1,3.6.1,5.4l-4.8-5.1-.5-.5h-.3c0,.5,0,1.5,0,2.8s-.1,4.1-.2,4.6h.9c-.1-.4-.1-2.6-.1-3.6s0-1.6,0-2l.4.4c1.7,1.8,3.4,3.6,4.9,5.4h.3c0-.5,0-2.8,0-3.9s.1-2.9.2-3.5Z"/><path class="cls-1" d="M37.8,32.5H32.2v.3a1.1,1.1,0,0,1-.1.3h2.3c0,.7,0,1.4,0,2.1v1.8c0,.9,0,1.8-.1,2.7h1.2c0-.8-.1-1.8-.1-2.7V35.2c0-.7,0-1.4,0-2.1h2.3v-.3a1.2,1.2,0,0,1,.1-.3Z"/><path class="cls-1" d="M43.1,39.1H40.2c0-.2,0-.7,0-1.5s0-1.2,0-1.5h2.6a1.6,1.6,0,0,1,0-.3,1.7,1.7,0,0,1,0-.3H40.2v-.4c0-.3,0-.6,0-.9s0-.6,0-.8v-.5H43a1.6,1.6,0,0,1,0-.6H39.1c0,.8.1,1.8.1,2.7v1.8c0,.9,0,1.8-.1,2.7h3.9v-.3a1.6,1.6,0,0,1,0-.3Z"/><path class="cls-1" d="M47.5,37l-.6-.7c.8-.1,2.1-.7,2.1-2.1s-.8-1.7-2.3-1.7H44.4c0,.9.1,1.8.1,2.7v1.8c0,.9,0,1.8-.1,2.7h1.2c0-.9-.1-1.8-.1-2.7v-.7h.3a30.9,30.9,0,0,1,2.7,3.5h1.3a.1.1,0,0,0,0-.1Zm-2.1-1.7c0-.7,0-1.5.1-2.2h1A1.4,1.4,0,0,1,48,34.3c0,1.2-1,1.6-2,1.6h-.7Z"/><path class="cls-1" d="M57.5,32.5h-.8c.1,1.6.1,3.6.1,5.4L52,32.8l-.5-.5h-.3c0,.5,0,1.5,0,2.8s-.1,4.1-.2,4.6H52c-.1-.4-.1-2.6-.1-3.6s0-1.6,0-2l.4.4c1.7,1.8,3.4,3.6,4.9,5.4h.3c0-.5,0-2.8,0-3.9s.1-2.9.2-3.5Z"/><path class="cls-1" d="M62.7,39.1H59.8c0-.2,0-.7,0-1.5s0-1.2,0-1.5h2.6a1.6,1.6,0,0,1,0-.3,1.7,1.7,0,0,1,0-.3H59.8c0-.1,0-.2,0-.4s0-.6,0-.9,0-.6,0-.8v-.5h2.8a1.5,1.5,0,0,1,0-.6H58.7c0,.8.1,1.8.1,2.7v1.8c0,.9,0,1.8-.1,2.7h3.9v-.3a1.6,1.6,0,0,1,0-.3Z"/><path class="cls-1" d="M69.6,32.5H64.1v.3a1.1,1.1,0,0,1-.1.3h2.3c0,.7,0,1.4,0,2.1v1.8c0,.9,0,1.9-.1,2.7h1.2c0-.9-.1-1.8-.1-2.7V35.2c0-.7,0-1.4,0-2.1h2.3v-.6Z"/><path class="cls-1" d="M75.8,32.3c-2.6,0-4.2,1.5-4.2,3.8S73.1,40,75.7,40a10.3,10.3,0,0,0,2.7-.5h0c0-.1,0-.3,0-.4s0-.3,0-.4,0-2,0-2.1H77.4v.3c0,.4,0,.8,0,1.2s0,.8,0,1.2a3.9,3.9,0,0,1-1.6.3c-1.9,0-3.1-1.2-3.1-3.3s1.1-3.3,3-3.3a3,3,0,0,1,2.3,1h.2a2.5,2.5,0,0,1,.2-.8h0A5.4,5.4,0,0,0,75.8,32.3Z"/><path class="cls-1" d="M83.2,37l-.6-.7c.8-.1,2.1-.7,2.1-2.1s-.8-1.7-2.3-1.7H80c0,.9.1,1.8.1,2.7v1.8c0,.9,0,1.8-.1,2.7h1.2c0-.9-.1-1.8-.1-2.7v-.7h.3a30.8,30.8,0,0,1,2.7,3.5h1.3a.1.1,0,0,0,0-.1ZM81,35.2c0-.7,0-1.5.1-2.2h1a1.4,1.4,0,0,1,1.6,1.3c0,1.2-1,1.6-2,1.6H81Z"/><path class="cls-1" d="M89.7,32.3a3.8,3.8,0,1,0,4,3.8A3.7,3.7,0,0,0,89.7,32.3Zm2.9,3.8c0,2.1-1,3.3-2.9,3.3s-2.9-1.2-2.9-3.3,1-3.3,2.9-3.3S92.6,34,92.6,36.2Z"/><path class="cls-1" d="M101.2,32.5h-.8c.1.4.1,1.4.1,3.4s0,3.4-2.3,3.4-2.3-1.8-2.3-3.3.1-3,.1-3.6H94.9v.3c0,.6.1,1.5.1,2.4s0,.5,0,.7,0,.6,0,.9c0,2.1,1,3.1,3.1,3.1a2.9,2.9,0,0,0,3.1-3.1c0-1.5.1-3.4.2-4.4h-.1Z"/><path class="cls-1" d="M105,32.5h-2.4c0,.9.1,1.8.1,2.7v1.8c0,.9,0,1.8-.1,2.7h1.2c0-.9-.1-1.8-.1-2.7v-.5h.8c1.4,0,2.9-.6,2.9-2.3S105.6,32.5,105,32.5Zm1.3,1.9c0,1.5-1.2,1.7-1.9,1.7h-.7V33h.9C105.6,33,106.3,33.2,106.3,34.4Z"/><path class="cls-2" d="M65,24.2h2l7.2-11.8,3.9,13.5.2.2h7.6a.1.1,0,0,0,.1-.2L78,.5,77.8.3H74.7L65,15.6,55.3.5H52.2L52,.5,44,25.8a.1.1,0,0,0,.1.2h7.6l.2-.2,3.9-13.5L63,24.1h2Z"/><path class="cls-2" d="M44.3,11.6H22.6a2.1,2.1,0,0,0,0,4.1H35.4c-1.5,4-6.7,7-12.8,7S9.3,18.4,9.3,13.1s5.9-9.5,13.3-9.5a15.9,15.9,0,0,1,10,3.3h8.9l.2-.2h-.1C37.9,2.7,30.8,0,22.6,0,10.5,0,.7,5.9.7,13.1s9.8,13.1,21.9,13.1,21.9-5.9,21.9-13.1A8.1,8.1,0,0,0,44.3,11.6Z"/><path class="cls-2" d="M107.4,0C95.3,0,85.5,5.9,85.5,13.1s9.8,13.1,21.9,13.1,21.9-5.9,21.9-13.1S119.5,0,107.4,0Zm0,22.6c-7.3,0-13.3-4.2-13.3-9.5s5.9-9.5,13.3-9.5,13.3,4.2,13.3,9.5S114.8,22.6,107.4,22.6Z"/></svg>