<?xml version="1.0" encoding="UTF-8"?>
<svg width="299px" height="64px" viewBox="0 0 299 64" version="1.1" xmlns="http://www.w3.org/2000/svg" xmlns:xlink="http://www.w3.org/1999/xlink">
    <!-- Generator: Sketch 48.2 (47327) - http://www.bohemiancoding.com/sketch -->
    <title>Iconscout_Black</title>
    <desc>Created with Sketch.</desc>
    <defs></defs>
    <g id="Web-Large-Copy" stroke="none" stroke-width="1" fill="none" fill-rule="evenodd" transform="translate(-272.000000, -1183.000000)">
        <g id="Iconscout_Black" transform="translate(272.000000, 1183.000000)" fill="#000000">
            <path d="M41.5733057,51.0880097 C41.0860995,50.2438022 40.1164999,49.8191488 39.1593564,50.0010217 C38.0654781,50.2089574 36.9373453,50.3194409 35.7831678,50.3194409 C25.4929552,50.3194409 17.2067705,41.7351535 17.6846345,31.3329871 C18.1115415,22.044438 25.6452602,14.5052116 34.9270892,14.0777253 C45.3226131,13.5992466 53.9012347,21.8914608 53.9012347,32.1888095 C53.9012347,36.6463952 52.2929731,40.7280536 49.6259371,43.8850498 C49.0053933,44.6196237 48.9017806,45.6595854 49.3821925,46.4924612 L54.5549005,55.4580585 C55.4268325,56.9691333 57.6060962,56.9691333 58.4777451,55.4580585 L70.7119697,34.2534352 C71.5207716,32.8508609 71.5207716,31.1230684 70.7119697,29.7207773 L55.2088495,2.85033178 C54.3997646,1.44775747 52.9041748,0.584002863 51.2862881,0.584002863 L20.2803307,0.584002863 C18.6618778,0.584002863 17.1665711,1.44775747 16.3577692,2.85033178 L0.854649029,29.7207773 C0.0455641071,31.1230684 0.0455641071,32.8508609 0.854649029,34.2534352 L16.3577692,61.124164 C17.1665711,62.5264551 18.6618778,63.390493 20.2803307,63.390493 L44.7484969,63.3902097 C46.4917946,63.3902097 47.5814265,61.5017911 46.7097776,59.9907163 L41.5733057,51.0880097 Z" id="Fill-17"></path>
            <path d="M35.7831395,23.0092709 C30.7800052,23.0092709 26.7241061,27.0679827 26.7241061,32.0745866 C26.7241061,37.0814737 30.7800052,41.1399023 35.7831395,41.1399023 C40.7865569,41.1399023 44.8421729,37.0814737 44.8421729,32.0745866 C44.8421729,27.0679827 40.7865569,23.0092709 35.7831395,23.0092709" id="Fill-19"></path>
            <path d="M87.4753147,44.693506 L82.0130007,44.693506 C81.9326018,44.693506 81.8672069,44.628349 81.8672069,44.5476111 L81.8672069,20.4576678 C81.8672069,20.3772131 81.9326018,20.3120562 82.0130007,20.3120562 L87.4753147,20.3120562 C87.5557137,20.3120562 87.6208255,20.3772131 87.6208255,20.4576678 L87.6208255,44.5476111 C87.6208255,44.628349 87.5557137,44.693506 87.4753147,44.693506 M81.0799202,12.4215487 C81.0799202,10.3818527 82.7300798,8.7308321 84.7199531,8.7308321 C86.7582356,8.7308321 88.4081121,10.3818527 88.4081121,12.4215487 C88.4081121,14.4612448 86.7582356,16.0638226 84.7199531,16.0638226 C82.7300798,16.0638226 81.0799202,14.4612448 81.0799202,12.4215487 M105.731532,24.9178031 C102.179541,24.9178031 99.0278471,27.571391 99.0278471,32.4777098 C99.0278471,37.3840286 102.179541,40.1376183 105.831747,40.1376183 C109.542271,40.1376183 111.29944,37.6103782 111.893656,35.767003 C111.918285,35.6899478 111.997552,35.6542531 112.073705,35.6817323 L116.902452,37.4347378 C116.977756,37.462217 117.020503,37.5438048 116.996157,37.6200101 C115.800647,41.3872154 112.159199,45.4442275 105.831747,45.4442275 C98.6773757,45.4442275 93.2244038,39.8871889 93.2244038,32.4777098 C93.2244038,24.9679457 98.6773757,19.5610514 105.681707,19.5610514 C112.161464,19.5610514 115.755918,23.5741534 116.803652,27.439094 C116.823752,27.5138829 116.781005,27.5923545 116.708249,27.6189839 L111.779569,29.4209987 C111.700869,29.4496111 111.618488,29.4082506 111.596124,29.3277959 C111.009268,27.2138776 109.350333,24.9178031 105.731532,24.9178031 M132.397646,40.2376201 C135.999744,40.2376201 139.201829,37.5843155 139.201829,32.4777098 C139.201829,27.4209634 135.999744,24.8178014 132.397646,24.8178014 C128.845656,24.8178014 125.593463,27.4209634 125.593463,32.4777098 C125.593463,37.5344562 128.845656,40.2376201 132.397646,40.2376201 M132.397646,19.5610514 C139.701775,19.5610514 145.05538,25.0180882 145.05538,32.4777098 C145.05538,39.987474 139.701775,45.4442275 132.397646,45.4442275 C125.143342,45.4442275 119.790019,39.987474 119.790019,32.4777098 C119.790019,25.0180882 125.143342,19.5610514 132.397646,19.5610514 M156.461836,30.6252692 L156.461836,44.5476111 C156.461836,44.628349 156.396724,44.693506 156.316608,44.693506 L150.803903,44.693506 C150.723787,44.693506 150.658393,44.628349 150.658393,44.5476111 L150.658393,20.4576678 C150.658393,20.3772131 150.723787,20.3120562 150.803903,20.3120562 L156.166568,20.3120562 C156.246967,20.3120562 156.311796,20.3772131 156.311796,20.4576678 C156.311796,21.4341723 157.435116,21.9678927 158.201736,21.3636328 C159.75168,20.1429314 161.680122,19.611194 163.515992,19.611194 C169.469759,19.611194 172.321372,23.9166523 172.321372,29.273404 L172.321372,44.5476111 C172.321372,44.628349 172.256261,44.693506 172.175862,44.693506 L166.663723,44.693506 C166.583041,44.693506 166.517929,44.628349 166.517929,44.5476111 L166.517929,30.2748381 C166.517929,27.2708191 165.167001,24.8679439 161.515078,24.8679439 C158.21306,24.8679439 156.461836,27.4209634 156.461836,30.6252692 M177.351684,38.0497628 L182.120416,36.7267933 C182.204212,36.7035634 182.284044,36.759655 182.294802,36.8460588 C182.560062,38.981224 184.205126,40.8384805 187.230277,40.8384805 C189.63177,40.8384805 190.882483,39.5367578 190.882483,38.0347483 C190.882483,36.7330257 189.982241,35.7318749 188.030869,35.3313012 L184.428771,34.5304372 C180.126013,33.5791457 177.874843,30.7754135 177.874843,27.4209634 C177.874843,23.1656476 181.777022,19.5610514 186.830264,19.5610514 C193.515547,19.5610514 195.757375,23.8146675 196.213158,26.2424724 C196.227312,26.3181111 196.178054,26.386101 196.104449,26.4073478 L191.48321,27.7286176 C191.401678,27.7518474 191.32411,27.7082206 191.309106,27.624933 C191.058568,26.2183926 189.970917,24.1169391 186.830264,24.1169391 C184.778959,24.1169391 183.328098,25.4186618 183.328098,26.9206713 C183.328098,28.2221107 184.278447,29.1734023 185.779416,29.4736908 L189.48173,30.2249789 C194.084568,31.2261297 196.485778,34.0295786 196.485778,37.6341747 C196.485778,41.3390559 193.484124,45.4442275 187.280384,45.4442275 C180.332106,45.4442275 177.606469,40.9755934 177.239578,38.2098222 C177.22967,38.1358833 177.279495,38.0695931 177.351684,38.0497628 M212.550558,24.9178031 C208.998568,24.9178031 205.84659,27.571391 205.84659,32.4777098 C205.84659,37.3840286 208.998568,40.1376183 212.650491,40.1376183 C216.361014,40.1376183 218.118183,37.6103782 218.712399,35.767003 C218.737312,35.6899478 218.816295,35.6542531 218.892731,35.6817323 L223.721196,37.4347378 C223.796499,37.462217 223.839246,37.5438048 223.8149,37.6200101 C222.619391,41.3872154 218.978225,45.4442275 212.650491,45.4442275 C205.496402,45.4442275 200.043147,39.8871889 200.043147,32.4777098 C200.043147,24.9679457 205.496402,19.5610514 212.500733,19.5610514 C218.980207,19.5610514 222.574945,23.5741534 223.622396,27.439094 C223.642495,27.5138829 223.599748,27.5923545 223.526993,27.6189839 L218.598312,29.4209987 C218.519895,29.4496111 218.437231,29.4082506 218.41515,29.3277959 C217.828011,27.2138776 216.169359,24.9178031 212.550558,24.9178031 M239.216389,40.2376201 C242.818487,40.2376201 246.020573,37.5843155 246.020573,32.4777098 C246.020573,27.4209634 242.818487,24.8178014 239.216389,24.8178014 C235.664399,24.8178014 232.412489,27.4209634 232.412489,32.4777098 C232.412489,37.5344562 235.664399,40.2376201 239.216389,40.2376201 M239.216389,19.5610514 C246.520801,19.5610514 251.874124,25.0180882 251.874124,32.4777098 C251.874124,39.987474 246.520801,45.4442275 239.216389,45.4442275 C231.962085,45.4442275 226.609046,39.987474 226.609046,32.4777098 C226.609046,25.0180882 231.962085,19.5610514 239.216389,19.5610514 M273.228813,44.6765085 C273.071979,43.7946233 272.056801,43.3439071 271.326416,43.8626132 C269.916038,44.8643305 268.021851,45.3943682 266.127663,45.3943682 C260.323937,45.3943682 256.921987,41.0886266 256.921987,35.6817323 L256.921987,20.4576678 C256.921987,20.3772131 256.987099,20.3120562 257.067498,20.3120562 L262.579919,20.3120562 C262.660318,20.3120562 262.725713,20.3772131 262.725713,20.4576678 L262.725713,34.6307223 C262.725713,37.6341747 264.126466,40.1877608 267.628349,40.1877608 C270.980474,40.1877608 272.731416,37.9347466 272.731416,34.7304408 L272.731416,20.4576678 C272.731416,20.3772131 272.796528,20.3120562 272.876926,20.3120562 L278.389631,20.3120562 C278.469747,20.3120562 278.534859,20.3772131 278.534859,20.4576678 L278.534859,40.2376201 C278.534859,42.1263219 278.66848,43.6141669 278.767846,44.5334465 C278.776905,44.6190004 278.710095,44.693506 278.623751,44.693506 L273.231927,44.693506 C273.230795,44.6878402 273.229663,44.6824576 273.228813,44.6765085 M293.393939,12.9980462 L293.393939,20.1664445 C293.393939,20.2466159 293.458767,20.3120562 293.539449,20.3120562 L298.301387,20.3120562 C298.381786,20.3120562 298.446614,20.3772131 298.446614,20.4576678 L298.446614,25.3229094 C298.446614,25.4033641 298.381786,25.4688043 298.301387,25.4688043 L293.539449,25.4688043 C293.458767,25.4688043 293.393939,25.533678 293.393939,25.6141327 L293.393939,36.7831682 C293.393939,38.9361807 294.344288,39.8370464 296.495525,39.8370464 C297.296117,39.8370464 298.24675,39.6869021 298.496722,39.6367596 L298.496722,44.3442081 C298.496722,44.4039825 298.47181,44.454125 298.416606,44.4762217 C297.995078,44.6450632 296.905446,44.9940779 294.944732,44.9940779 C290.442109,44.9940779 287.640603,42.2903475 287.640603,37.7344598 L287.640603,25.6141327 C287.640603,25.533678 287.575208,25.4688043 287.495092,25.4688043 L283.283208,25.4688043 C283.202809,25.4688043 283.137414,25.4033641 283.137414,25.3229094 L283.137414,20.3120562 L284.38841,20.3120562 C286.990051,20.3120562 288.140548,18.6599024 288.140548,16.5071732 L288.140548,12.9980462 C288.140548,12.9175915 288.205943,12.8524345 288.286342,12.8524345 L293.248145,12.8524345 C293.328544,12.8524345 293.393939,12.9175915 293.393939,12.9980462" id="Fill-21"></path>
        </g>
    </g>
</svg>