<svg xmlns="http://www.w3.org/2000/svg" viewBox="0 0 245.55 57.66"><defs><style>.a{fill:#34b8b3;}.b{fill:#008c86;}</style></defs><title>Untitled-2</title><path class="a" d="M179,37.48a3.12,3.12,0,0,1-3.11-3.12V19.74a3.38,3.38,0,0,1,3.37-3.39h12a3.12,3.12,0,0,1,0,6.24h-9.19V34.36A3.12,3.12,0,0,1,179,37.48Z" transform="translate(-4.01 -1.46)"/><path class="b" d="M179,22.59a3.12,3.12,0,0,1-3.11-3.12v-14a4,4,0,0,1,4-4h15.91a3.12,3.12,0,0,1,0,6.24H182.13V19.47A3.12,3.12,0,0,1,179,22.59Z" transform="translate(-4.01 -1.46)"/><path class="b" d="M108.5,37.48a3.1,3.1,0,0,1-2.37-1.1L96.68,25.24a3.11,3.11,0,1,1,4.74-4l9.44,11.14a3.13,3.13,0,0,1-.35,4.4A3.09,3.09,0,0,1,108.5,37.48Z" transform="translate(-4.01 -1.46)"/><path class="b" d="M118.19,37.48a3.09,3.09,0,0,1-1.2-.24,3.13,3.13,0,0,1-1.67-4.09L127.73,3.38a3.11,3.11,0,1,1,5.74,2.41L121.06,35.56A3.11,3.11,0,0,1,118.19,37.48Z" transform="translate(-4.01 -1.46)"/><path class="a" d="M22.11,7.71h-15a3.12,3.12,0,0,1,0-6.24h15A3.12,3.12,0,0,1,22.11,7.71Z" transform="translate(-4.01 -1.46)"/><path class="b" d="M80.29,7.71H61.77a3.12,3.12,0,0,1,0-6.24H80.29A3.12,3.12,0,0,1,80.29,7.71Z" transform="translate(-4.01 -1.46)"/><path class="a" d="M220,7.71H205a3.12,3.12,0,0,1,0-6.24h15A3.12,3.12,0,0,1,220,7.71Z" transform="translate(-4.01 -1.46)"/><path class="a" d="M220,37.48H205a3.12,3.12,0,0,1,0-6.24h15A3.12,3.12,0,0,1,220,37.48Z" transform="translate(-4.01 -1.46)"/><path class="b" d="M52.08,37.48A3.12,3.12,0,0,1,49,34.36V4.59a3.11,3.11,0,1,1,6.22,0V34.36A3.12,3.12,0,0,1,52.08,37.48Z" transform="translate(-4.01 -1.46)"/><path class="a" d="M52.08,37.48a3.1,3.1,0,0,1-2.57-1.36L29.24,6.35a3.11,3.11,0,1,1,5.13-3.52L54.65,32.59a3.13,3.13,0,0,1-.81,4.34A3.09,3.09,0,0,1,52.08,37.48Z" transform="translate(-4.01 -1.46)"/><path class="a" d="M142.73,37.3a3.23,3.23,0,0,1-1.56-.4L121.33,26a3.12,3.12,0,0,1,3-5.47l12.38,6.83-9-21.52a3.11,3.11,0,1,1,5.74-2.41l12.26,29.4a3.27,3.27,0,0,1-.82,3.68A3.24,3.24,0,0,1,142.73,37.3Z" transform="translate(-4.01 -1.46)"/><path class="a" d="M229.7,22.59a3.12,3.12,0,0,1-3.11-3.12V13.9A12.32,12.32,0,0,1,238.76,1.47h7.69a3.12,3.12,0,0,1,0,6.24h-7.69a6.08,6.08,0,0,0-5.95,6.19v5.57A3.12,3.12,0,0,1,229.7,22.59Z" transform="translate(-4.01 -1.46)"/><path class="a" d="M99.05,26.34a3.12,3.12,0,0,1,0-6.24,6.09,6.09,0,0,0,6-6.19,6.09,6.09,0,0,0-6-6.19H90a3.12,3.12,0,0,1,0-6.24h9.07A12.32,12.32,0,0,1,111.23,13.9,12.32,12.32,0,0,1,99.05,26.34Z" transform="translate(-4.01 -1.46)"/><path class="b" d="M90,37.48a3.12,3.12,0,0,1-3.11-3.12V4.59a3.11,3.11,0,1,1,6.22,0V34.36A3.12,3.12,0,0,1,90,37.48Z" transform="translate(-4.01 -1.46)"/><path class="b" d="M31.8,37.48a3.12,3.12,0,0,1-3.11-3.12V4.59a3.11,3.11,0,1,1,6.22,0V34.36A3.12,3.12,0,0,1,31.8,37.48Z" transform="translate(-4.01 -1.46)"/><path class="b" d="M126.72,17a3.09,3.09,0,0,1-1.2-.24,3.13,3.13,0,0,1-1.67-4.09l3.88-9.31a3.11,3.11,0,1,1,5.74,2.41l-3.88,9.31A3.11,3.11,0,0,1,126.72,17Z" transform="translate(-4.01 -1.46)"/><path class="a" d="M152.57,22.59a3.12,3.12,0,0,1-3.11-3.12v-14a4,4,0,0,1,4-4h15.91a3.12,3.12,0,0,1,0,6.24H155.68V19.47A3.12,3.12,0,0,1,152.57,22.59Z" transform="translate(-4.01 -1.46)"/><path class="b" d="M246.45,37.48h-7.69A12.32,12.32,0,0,1,226.59,25V19.47a3.11,3.11,0,1,1,6.22,0V25a6.08,6.08,0,0,0,5.95,6.19h7.69A3.12,3.12,0,0,1,246.45,37.48Z" transform="translate(-4.01 -1.46)"/><path class="a" d="M71.16,37.48A3.12,3.12,0,0,1,68,34.36V4.59a3.11,3.11,0,1,1,6.22,0V34.36A3.12,3.12,0,0,1,71.16,37.48Z" transform="translate(-4.01 -1.46)"/><path class="b" d="M152.57,37.48a3.12,3.12,0,0,1-3.11-3.12V19.74a3.38,3.38,0,0,1,3.37-3.39h12a3.12,3.12,0,0,1,0,6.24h-9.19V34.36A3.12,3.12,0,0,1,152.57,37.48Z" transform="translate(-4.01 -1.46)"/><path class="b" d="M212.64,37.48a3.12,3.12,0,0,1-3.11-3.12V4.59a3.11,3.11,0,1,1,6.22,0V34.36A3.12,3.12,0,0,1,212.64,37.48Z" transform="translate(-4.01 -1.46)"/><path class="a" d="M22.11,37.48h-15a3.12,3.12,0,0,1,0-6.24h15A3.12,3.12,0,0,1,22.11,37.48Z" transform="translate(-4.01 -1.46)"/><path class="b" d="M14.74,37.48a3.12,3.12,0,0,1-3.11-3.12V4.59a3.11,3.11,0,1,1,6.22,0V34.36A3.12,3.12,0,0,1,14.74,37.48Z" transform="translate(-4.01 -1.46)"/><path class="b" d="M76.66,55.89h-1v-4.2a3.57,3.57,0,0,0-.41-1.93A1.4,1.4,0,0,0,74,49.14a2.11,2.11,0,0,0-.82.16,2.5,2.5,0,0,0-.71.45,3.05,3.05,0,0,0-.57.69,3.3,3.3,0,0,0-.38.87v4.59h-1v-4.2a3.61,3.61,0,0,0-.4-1.95,1.39,1.39,0,0,0-1.24-.61,2.21,2.21,0,0,0-1.52.59,3.3,3.3,0,0,0-1,1.56v4.61h-1V48.37h0.9v1.7a3.55,3.55,0,0,1,1.21-1.35,3,3,0,0,1,1.66-.48,2.16,2.16,0,0,1,1.53.53,2.25,2.25,0,0,1,.69,1.4,3.22,3.22,0,0,1,2.92-1.93,2.26,2.26,0,0,1,1.06.23,1.83,1.83,0,0,1,.71.66,3.09,3.09,0,0,1,.39,1,6.68,6.68,0,0,1,.12,1.34v4.4Z" transform="translate(-4.01 -1.46)"/><path class="b" d="M80.76,56a3,3,0,0,1-1.05-.18,2.45,2.45,0,0,1-.82-0.5,2.26,2.26,0,0,1-.53-0.74,2.12,2.12,0,0,1-.19-0.88,2,2,0,0,1,.23-0.95,2.17,2.17,0,0,1,.65-0.73,3.16,3.16,0,0,1,1-.47,4.72,4.72,0,0,1,1.29-.17,6.9,6.9,0,0,1,1.15.1,5.06,5.06,0,0,1,1.05.29V51.14A2.16,2.16,0,0,0,83,49.56,2,2,0,0,0,81.45,49a3.34,3.34,0,0,0-1.21.23,5.76,5.76,0,0,0-1.22.66l-0.35-.65a6.52,6.52,0,0,1,1.43-.74,4.29,4.29,0,0,1,1.44-.25,3,3,0,0,1,2.18.79,2.93,2.93,0,0,1,.81,2.19v3.39a0.33,0.33,0,0,0,.35.4v0.87l-0.22,0H84.5A0.87,0.87,0,0,1,84,55.75a0.67,0.67,0,0,1-.27-0.52l0-.59a3.27,3.27,0,0,1-1.29,1A3.85,3.85,0,0,1,80.76,56ZM81,55.29A3.18,3.18,0,0,0,82.29,55a2.52,2.52,0,0,0,1-.77A1.49,1.49,0,0,0,83.48,54a0.66,0.66,0,0,0,.07-0.28V52.44a6,6,0,0,0-1-.29,5.56,5.56,0,0,0-1-.1,3.1,3.1,0,0,0-1.71.43,1.33,1.33,0,0,0-.66,1.18,1.57,1.57,0,0,0,.12.59,1.48,1.48,0,0,0,.35.52,1.84,1.84,0,0,0,.58.38A2.13,2.13,0,0,0,81,55.29Z" transform="translate(-4.01 -1.46)"/><path class="b" d="M89.27,56a5.24,5.24,0,0,1-1.72-.29,4.12,4.12,0,0,1-1.44-.84l0.45-.66a4.87,4.87,0,0,0,1.29.78,3.79,3.79,0,0,0,1.41.26,2.54,2.54,0,0,0,1.45-.37,1.19,1.19,0,0,0,.54-1,0.91,0.91,0,0,0-.14-0.53A1.26,1.26,0,0,0,90.68,53,3.33,3.33,0,0,0,90,52.7l-1-.25q-0.65-.16-1.13-0.32a3.43,3.43,0,0,1-.79-0.36,1.3,1.3,0,0,1-.46-0.5,1.63,1.63,0,0,1-.15-0.74,2.14,2.14,0,0,1,.22-1,2,2,0,0,1,.61-0.71,2.75,2.75,0,0,1,.9-0.43,4,4,0,0,1,1.09-.14,4.22,4.22,0,0,1,1.57.28,3.1,3.1,0,0,1,1.14.74l-0.48.58a2.64,2.64,0,0,0-1-.65A3.65,3.65,0,0,0,89.24,49a3.1,3.1,0,0,0-.72.08,1.73,1.73,0,0,0-.58.25,1.25,1.25,0,0,0-.4.44,1.31,1.31,0,0,0-.14.63,1,1,0,0,0,.1.49,0.86,0.86,0,0,0,.33.32,2.68,2.68,0,0,0,.58.25q0.35,0.11.86,0.22Q90,51.84,90.54,52a4,4,0,0,1,.92.4A1.59,1.59,0,0,1,92,53a1.62,1.62,0,0,1,.19.81,2,2,0,0,1-.79,1.65A3.44,3.44,0,0,1,89.27,56Z" transform="translate(-4.01 -1.46)"/><path class="b" d="M97.47,55.53l-0.25.12-0.38.14a4.45,4.45,0,0,1-.49.13,2.83,2.83,0,0,1-.58.06,2.1,2.1,0,0,1-.61-0.09,1.41,1.41,0,0,1-.51-0.27,1.31,1.31,0,0,1-.35-0.45,1.47,1.47,0,0,1-.13-0.64V49.15h-1V48.37h1V45.83h1v2.54H96.9v0.78H95.16v5.11a0.79,0.79,0,0,0,.29.61,1,1,0,0,0,.62.2,1.84,1.84,0,0,0,.74-0.14,3.38,3.38,0,0,0,.4-0.19Z" transform="translate(-4.01 -1.46)"/><path class="b" d="M102,56a3.66,3.66,0,0,1-2.71-1.16,4,4,0,0,1-.79-1.25,4.07,4.07,0,0,1-.28-1.52,4,4,0,0,1,.28-1.49,3.78,3.78,0,0,1,2-2.06,3.67,3.67,0,0,1,4.19.84,4,4,0,0,1,1,2.7c0,0.08,0,.15,0,0.23a0.76,0.76,0,0,1,0,.16H99.25a3.18,3.18,0,0,0,.89,2,2.66,2.66,0,0,0,.85.59,2.57,2.57,0,0,0,1,.21,2.71,2.71,0,0,0,.74-0.1,2.9,2.9,0,0,0,.66-0.27,2.3,2.3,0,0,0,.54-0.43,1.91,1.91,0,0,0,.37-0.56l0.85,0.23a2.5,2.5,0,0,1-.49.76,3.39,3.39,0,0,1-.74.59,3.59,3.59,0,0,1-.92.39A4,4,0,0,1,102,56Zm2.77-4.3a3,3,0,0,0-.89-2,2.66,2.66,0,0,0-.86-0.56,2.77,2.77,0,0,0-2.08,0,2.66,2.66,0,0,0-.86.56,2.79,2.79,0,0,0-.59.87,3.28,3.28,0,0,0-.27,1.1h5.54Z" transform="translate(-4.01 -1.46)"/><path class="b" d="M111,49.24a3.09,3.09,0,0,0-1.73.55,2.76,2.76,0,0,0-1,1.43v4.68h-1V48.37h0.92v1.8a4,4,0,0,1,1-1.32,2.11,2.11,0,0,1,1.37-.53H111v0.9Z" transform="translate(-4.01 -1.46)"/><path class="b" d="M112.39,46.8V45.36h1V46.8h-1Zm0,9.1V48.37h1v7.52h-1Z" transform="translate(-4.01 -1.46)"/><path class="b" d="M121.87,55.89h-1v-4.2a3.72,3.72,0,0,0-.39-1.95,1.34,1.34,0,0,0-1.21-.61,2.5,2.5,0,0,0-.87.16,3,3,0,0,0-.81.45,3.16,3.16,0,0,0-.66.69,3,3,0,0,0-.43.86v4.61h-1V48.37h0.9v1.7a3.49,3.49,0,0,1,.57-0.74,3.74,3.74,0,0,1,1.65-1,3.63,3.63,0,0,1,1-.13,2.21,2.21,0,0,1,1.06.23,1.82,1.82,0,0,1,.69.65,3,3,0,0,1,.38,1,7.15,7.15,0,0,1,.12,1.34v4.4Z" transform="translate(-4.01 -1.46)"/><path class="b" d="M127,56a3.11,3.11,0,0,1-1.42-.32,3.68,3.68,0,0,1-1.11-.86,3.93,3.93,0,0,1-.73-1.23,4,4,0,0,1-.26-1.43,4.45,4.45,0,0,1,.25-1.49,3.84,3.84,0,0,1,.71-1.25,3.5,3.5,0,0,1,1.1-.85,3.17,3.17,0,0,1,1.42-.32,2.89,2.89,0,0,1,1.67.48,4.64,4.64,0,0,1,1.21,1.22V48.37h0.88v7.55a3.08,3.08,0,0,1-.3,1.38,3,3,0,0,1-.79,1,3.37,3.37,0,0,1-1.18.61,5,5,0,0,1-1.43.2,4.11,4.11,0,0,1-2.08-.46,3.69,3.69,0,0,1-1.29-1.24l0.61-.48A2.71,2.71,0,0,0,125.5,58a3.73,3.73,0,0,0,1.57.34,3.59,3.59,0,0,0,1-.15,2.54,2.54,0,0,0,.87-0.45,2.11,2.11,0,0,0,.59-0.75,2.44,2.44,0,0,0,.22-1.06V54.44a3.26,3.26,0,0,1-1.19,1.14A3.14,3.14,0,0,1,127,56Zm0.27-.82a2.39,2.39,0,0,0,.85-0.16,2.86,2.86,0,0,0,.76-0.43,2.81,2.81,0,0,0,.57-0.6,1.85,1.85,0,0,0,.3-0.68V51a2.81,2.81,0,0,0-.44-0.75,3.13,3.13,0,0,0-1.37-1,2.41,2.41,0,0,0-1.93.12,2.73,2.73,0,0,0-.84.7,3.11,3.11,0,0,0-.53,1,3.53,3.53,0,0,0-.18,1.11,3.12,3.12,0,0,0,.22,1.16,3.08,3.08,0,0,0,.59,1,2.76,2.76,0,0,0,.89.65A2.59,2.59,0,0,0,127.3,55.17Z" transform="translate(-4.01 -1.46)"/><path class="b" d="M147.9,55.89h-1v-4.2a3.58,3.58,0,0,0-.41-1.93,1.4,1.4,0,0,0-1.25-.62,2.11,2.11,0,0,0-.82.16,2.5,2.5,0,0,0-.71.45,3.05,3.05,0,0,0-.57.69,3.3,3.3,0,0,0-.38.87v4.59h-1v-4.2a3.61,3.61,0,0,0-.4-1.95,1.39,1.39,0,0,0-1.24-.61,2.21,2.21,0,0,0-1.52.59,3.3,3.3,0,0,0-1,1.56v4.61h-1V48.37h0.9v1.7a3.55,3.55,0,0,1,1.21-1.35,3,3,0,0,1,1.66-.48,2.16,2.16,0,0,1,1.53.53,2.25,2.25,0,0,1,.69,1.4,3.22,3.22,0,0,1,2.92-1.93,2.26,2.26,0,0,1,1.06.23,1.82,1.82,0,0,1,.71.66,3.09,3.09,0,0,1,.39,1,6.68,6.68,0,0,1,.12,1.34v4.4Z" transform="translate(-4.01 -1.46)"/><path class="b" d="M153.26,56a3.62,3.62,0,0,1-2.69-1.16,3.83,3.83,0,0,1-.77-1.24,4.07,4.07,0,0,1-.27-1.49,4,4,0,0,1,.28-1.5,3.93,3.93,0,0,1,.78-1.24,3.78,3.78,0,0,1,1.18-.85,3.68,3.68,0,0,1,3,0,3.76,3.76,0,0,1,1.18.85,3.93,3.93,0,0,1,.78,1.24,4.1,4.1,0,0,1,0,3,3.92,3.92,0,0,1-.78,1.24,3.64,3.64,0,0,1-1.18.84A3.57,3.57,0,0,1,153.26,56Zm-2.73-3.87a3.23,3.23,0,0,0,.21,1.18,3.08,3.08,0,0,0,.58,1,2.63,2.63,0,0,0,.87.64,2.48,2.48,0,0,0,1.06.23,2.43,2.43,0,0,0,1.06-.24,2.8,2.8,0,0,0,.87-0.65,3.07,3.07,0,0,0,.59-1,3.32,3.32,0,0,0,0-2.36,3.06,3.06,0,0,0-.59-1,2.85,2.85,0,0,0-.87-0.65,2.38,2.38,0,0,0-1.05-.24,2.43,2.43,0,0,0-1.06.24,2.7,2.7,0,0,0-.87.66A3.29,3.29,0,0,0,150.53,52.17Z" transform="translate(-4.01 -1.46)"/><path class="b" d="M162.35,56a3.12,3.12,0,0,1-1.63-.45,3.28,3.28,0,0,1-1.17-1.15v1.46h-0.88V45.36h1v4.59a4.3,4.3,0,0,1,1.21-1.23,2.94,2.94,0,0,1,1.66-.47,3,3,0,0,1,1.41.33,3.32,3.32,0,0,1,1.08.89,4.16,4.16,0,0,1,.68,1.26,4.42,4.42,0,0,1,.24,1.44,4.14,4.14,0,0,1-.27,1.5,3.88,3.88,0,0,1-.76,1.23,3.64,3.64,0,0,1-1.14.84A3.25,3.25,0,0,1,162.35,56Zm-0.23-.87a2.53,2.53,0,0,0,1.13-.25,2.77,2.77,0,0,0,.88-0.68,3.27,3.27,0,0,0,.58-1,3.08,3.08,0,0,0,.21-1.12,3.39,3.39,0,0,0-.19-1.14,3.18,3.18,0,0,0-.55-1,2.69,2.69,0,0,0-.84-0.68,2.33,2.33,0,0,0-1.08-.25,2.29,2.29,0,0,0-.84.15,2.85,2.85,0,0,0-.72.41,3.52,3.52,0,0,0-.6.6,3.6,3.6,0,0,0-.44.71v2.34a1.59,1.59,0,0,0,.31.73,2.51,2.51,0,0,0,.61.58,3.35,3.35,0,0,0,.77.39A2.3,2.3,0,0,0,162.12,55.17Z" transform="translate(-4.01 -1.46)"/><path class="b" d="M167.64,46.8V45.36h1V46.8h-1Zm0,9.1V48.37h1v7.52h-1Z" transform="translate(-4.01 -1.46)"/><path class="b" d="M170.84,45.36h1v8.84a0.9,0.9,0,0,0,.23.66,0.87,0.87,0,0,0,.65.24,1.94,1.94,0,0,0,.38,0,2.49,2.49,0,0,0,.4-0.12l0.17,0.79a3.19,3.19,0,0,1-.67.19,3.87,3.87,0,0,1-.69.07,1.46,1.46,0,0,1-1.07-.38,1.43,1.43,0,0,1-.39-1.08V45.36Z" transform="translate(-4.01 -1.46)"/><path class="b" d="M174.68,46.8V45.36h1V46.8h-1Zm0,9.1V48.37h1v7.52h-1Z" transform="translate(-4.01 -1.46)"/><path class="b" d="M181.48,55.53l-0.25.12-0.38.14a4.36,4.36,0,0,1-.49.13,2.82,2.82,0,0,1-.58.06,2.09,2.09,0,0,1-.61-0.09,1.42,1.42,0,0,1-.51-0.27,1.32,1.32,0,0,1-.35-0.45,1.48,1.48,0,0,1-.13-0.64V49.15h-1V48.37h1V45.83h1v2.54h1.73v0.78h-1.73v5.11a0.79,0.79,0,0,0,.29.61,1,1,0,0,0,.62.2,1.84,1.84,0,0,0,.74-0.14,3.41,3.41,0,0,0,.4-0.19Z" transform="translate(-4.01 -1.46)"/><path class="b" d="M183.13,58.22l0.14,0h0.15l0.31,0,0.24-.06a0.4,0.4,0,0,0,.15-0.12,1.94,1.94,0,0,0,.2-0.33c0.08-.16.18-0.38,0.31-0.66s0.28-.67.48-1.15l-3.28-7.52h1L185.64,55l2.57-6.61h0.94l-3.91,9.7a1.75,1.75,0,0,1-.59.79,1.77,1.77,0,0,1-1,.26,2.5,2.5,0,0,1-.49,0V58.22Z" transform="translate(-4.01 -1.46)"/></svg>