<?xml version="1.0" encoding="UTF-8"?>
<svg width="283px" height="63px" viewBox="0 0 283 63" version="1.1" xmlns="http://www.w3.org/2000/svg" xmlns:xlink="http://www.w3.org/1999/xlink">
    <!-- Generator: Sketch 51.2 (57519) - http://www.bohemiancoding.com/sketch -->
    <title>ML_ForBright_Horizontal@1.5x</title>
    <desc>Created with Sketch.</desc>
    <defs>
        <path d="M22.4945231,3.46289231 C21.6300308,3.97784615 20.8118154,4.46326154 20.1393231,4.74190769 C19.4038154,5.04713846 18.4408615,5.2992 17.4217846,5.56603077 C14.8548923,6.23753846 11.6627692,7.07249231 9.17070769,9.56652308 C6.67766154,12.0576 5.84270769,15.2497231 5.1712,17.8146462 C4.90535385,18.8347077 4.65329231,19.7976615 4.34707692,20.5361231 C4.06941538,21.2046769 3.58498462,22.0219077 3.07101538,22.8854154 C1.70141538,25.1923692 0,28.0566154 0,31.7046154 C0,35.3536 1.70141538,38.2168615 3.06806154,40.5198769 C3.58301538,41.3863385 4.06941538,42.2035692 4.34707692,42.8750769 C4.65329231,43.6125538 4.90535385,44.5755077 5.1712,45.5955692 C5.84270769,48.1595077 6.67667692,51.3516308 9.16972308,53.8456615 C11.6627692,56.3377231 14.8539077,57.1716923 17.4178462,57.8432 C18.4438154,58.112 19.4048,58.3630769 20.1393231,58.6683077 C20.8118154,58.9469538 21.6290462,59.4323692 22.4945231,59.9463385 C24.7965538,61.3139692 27.6617846,63.0153846 31.3097846,63.0153846 C34.9587692,63.0153846 37.824,61.3139692 40.1260308,59.9463385 C40.9954462,59.4304 41.8116923,58.9449846 42.4792615,58.6683077 C43.2157538,58.3630769 44.1757538,58.112 45.1928615,57.8451692 C47.7666462,57.1716923 50.9577846,56.3377231 53.4488615,53.8456615 C55.9419077,51.3526154 56.7768615,48.1614769 57.4483692,45.5975385 C57.7152,44.5755077 57.9682462,43.6125538 58.2734769,42.8760615 C58.5521231,42.2035692 59.0375385,41.3863385 59.5524923,40.5208615 C60.9191385,38.2178462 62.6195692,35.3536 62.6195692,31.7046154 C62.6195692,28.0576 60.9191385,25.1933538 59.5534769,22.8923077 C59.0375385,22.0248615 58.5521231,21.2056615 58.2734769,20.5361231 C57.9682462,19.7986462 57.7152,18.8356923 57.4493538,17.8166154 C56.7768615,15.2487385 55.9419077,12.0576 53.4488615,9.56652308 C50.9577846,7.07249231 47.7656615,6.23753846 45.2007385,5.56701538 C44.1806769,5.30018462 43.2177231,5.04713846 42.4802462,4.74190769 C41.8087385,4.46326154 40.9905231,3.97784615 40.1250462,3.46289231 C37.8230154,2.09624615 34.9587692,0.395815385 31.3097846,0.395815385 C27.6617846,0.395815385 24.7985231,2.09624615 22.4945231,3.46289231 M19.3821538,20.8049231 C18.9607385,20.7005538 18.5314462,20.5627077 18.2065231,20.2722462 C16.8635077,19.0700308 19.0601846,18.2360615 19.9788308,18.0135385 C24.5779692,16.9019077 29.3100308,16.3859692 34.0391385,16.3219692 C36.608,16.2884923 39.2004923,16.3899077 41.6964923,17.0023385 C42.8179692,17.2770462 43.9404308,17.6699077 44.8384,18.3995077 C45.2755692,18.7559385 45.6674462,19.2216615 45.7383385,19.7809231 C45.8082462,20.3392 45.4390154,20.9742769 44.8797538,21.0264615 C44.6907077,21.0441846 44.4947692,20.9998769 44.3017846,20.9555692 C44.0004923,20.8866462 43.7060923,20.8167385 43.4628923,20.9821538 C43.1566769,21.1908923 43.1527385,21.6398769 43.2403692,22.0002462 C43.7553231,24.1033846 46.1105231,25.3233231 46.7593846,27.3910154 C46.8450462,27.6627692 46.8883692,27.9876923 46.7072,28.2082462 C46.5595077,28.3894154 46.3084308,28.4396308 46.0780308,28.4790154 C45.0038154,28.6611692 43.9187692,28.8443077 42.8297846,28.8 C41.7408,28.7566769 40.6311385,28.4672 39.7745231,27.7917538 C38.5260308,26.8081231 37.9933538,25.1815385 36.9959385,23.9438769 C35.9197538,22.6087385 34.3325538,21.7826462 32.6577231,21.3582769 C32.3268923,21.2736 31.9931077,21.2056615 31.6583385,21.1534769 C29.6310154,20.8295385 27.5623385,20.9900308 25.5113846,21.1091692 C24.6980923,21.1564308 23.8788923,21.1958154 23.0616615,21.1958154 C21.8200615,21.1958154 20.5843692,21.1042462 19.3821538,20.8049231 M23.1502769,31.6563692 C22.5614769,31.4939077 21.9441231,31.2900923 21.5473231,30.8253538 C20.7694769,29.9116308 21.1091692,28.2180923 21.8299077,27.3713231 C22.6363077,26.4241231 24.0088615,26.0765538 25.1746462,25.8461538 C27.2472615,25.4385231 29.3632,25.2553846 31.4752,25.2967385 C32.3456,25.3144615 33.2681846,25.3873231 33.9790769,25.8944 C34.8032,26.4822154 35.1556923,27.5160615 35.4599385,28.4819692 C35.5150769,28.6582154 35.5721846,28.8413538 35.5830154,29.0235077 C35.5899077,29.1190154 35.5830154,29.2145231 35.5593846,29.3090462 C35.4914462,29.568 35.2925538,29.7708308 35.0936615,29.9500308 C33.5320615,31.3540923 31.4633846,32.1171692 29.3740308,32.3249231 C28.9368615,32.3692308 28.4987077,32.3889231 28.0605538,32.3889231 C26.4054154,32.3889231 24.7502769,32.0974769 23.1502769,31.6563692 M49.1736615,39.1069538 C49.0496,39.0902154 48.9393231,39.0183385 48.8379077,38.9464615 C48.2648615,38.5457231 47.7174154,38.0859077 47.3472,37.4931692 C46.2798769,35.7799385 46.3773538,32.8280615 47.9773538,31.5017846 C48.0659692,31.4279385 48.1634462,31.3570462 48.2766769,31.3412923 C48.4381538,31.3196308 48.5917538,31.4131692 48.7207385,31.5145846 C49.92,32.4470154 50.3414154,34.0548923 50.5757538,35.5574154 C50.6496,36.0398769 50.7136,36.5331692 50.6850462,37.0185846 C50.6761846,37.1790769 50.6564923,37.3395692 50.6230154,37.4990769 C50.4940308,38.1361231 50.1218462,38.7574154 49.5310769,39.0311385 C49.4375385,39.0764308 49.3351385,39.1108923 49.2327385,39.1108923 C49.2130462,39.1108923 49.1933538,39.1099077 49.1736615,39.1069538 M37.7993846,39.8375385 C37.3858462,39.8355692 36.9624615,39.7991385 36.5597538,39.7056 C35.6361846,39.4889846 34.7155692,39.2497231 33.8077538,38.976 C33.4139077,38.8578462 33.0318769,38.6688 32.6872615,38.4462769 C32.3456,38.2247385 32.2038154,37.8594462 32.2323692,37.44 C32.2540308,37.1288615 32.2668308,36.8177231 32.2845538,36.4888615 C32.2845538,36.1954462 32.2944,35.8833231 32.2825846,35.5712 C32.2668308,35.1369846 32.3958154,34.7431385 32.7099077,34.4576 C33.0397538,34.1572923 33.3971692,33.8697846 33.7880615,33.6610462 C34.7421538,33.152 35.7169231,32.6843077 36.6897231,32.2126769 C37.5512615,31.7932308 38.4462769,31.7056 39.3649231,32.0098462 C40.0797538,32.2461538 40.7926154,32.4913231 41.5015385,32.7443692 C42.3453538,33.0456615 42.8544,33.6108308 42.8760615,34.5462154 C42.8868923,35.0877538 42.9016615,35.6283077 42.9252923,36.1688615 C42.9636923,37.0924308 42.5176615,37.7353846 41.7437538,38.1676308 C40.9856,38.5900308 40.2116923,38.9838769 39.4436923,39.3895385 C38.9326769,39.6593231 38.3901538,39.8375385 37.8121846,39.8375385 C37.8082462,39.8375385 37.8043077,39.8375385 37.7993846,39.8375385 M41.9337846,48.0029538 C41.2731077,47.6760615 40.6321231,47.3088 39.9793231,46.9661538 C39.3324308,46.6264615 39.0843077,46.0957538 39.2713846,45.3937231 C39.4850462,44.5853538 39.7036308,43.7789538 39.9320615,42.9755077 C40.1299692,42.2754462 40.5868308,41.7604923 41.1933538,41.3991385 C42.1504,40.8290462 43.1241846,40.2825846 44.1048615,39.7568 C44.7113846,39.4299077 45.3267692,39.4220308 45.9017846,39.8759385 C46.2631385,40.1595077 46.6333538,40.4322462 47.0055385,40.7000615 C47.6337231,41.1490462 47.8001231,41.7870769 47.7124923,42.5028923 C47.6091077,43.3398154 47.4791385,44.1747692 47.3383385,45.0067692 C47.2073846,45.7737846 46.8194462,46.3812923 46.1292308,46.7702154 C45.4370462,47.1601231 44.7428923,47.5470769 44.0467692,47.9300923 C43.6745846,48.1348923 43.2758154,48.2500923 42.8278154,48.3052308 C42.5284923,48.2077538 42.2124308,48.1417846 41.9337846,48.0029538" id="path-1"></path>
        <linearGradient x1="-15.8608404%" y1="49.9992325%" x2="124.048445%" y2="49.9992325%" id="linearGradient-3">
            <stop stop-color="#00CD87" offset="0%"></stop>
            <stop stop-color="#00C8D6" offset="100%"></stop>
        </linearGradient>
        <polygon id="path-4" points="0 63.0153846 282.306954 63.0153846 282.306954 0.394830769 0 0.394830769"></polygon>
    </defs>
    <g id="grids-GUI" stroke="none" stroke-width="1" fill="none" fill-rule="evenodd">
        <g id="desktop-copy" transform="translate(-54.000000, -873.000000)">
            <g id="ML_ForBright_Horizontal" transform="translate(54.000000, 872.000000)">
                <g>
                    <g id="Group-3" transform="translate(0.000000, 0.589785)">
                        <mask id="mask-2" fill="white">
                            <use xlink:href="#path-1"></use>
                        </mask>
                        <g id="Clip-2"></g>
                        <path d="M22.4945231,3.46289231 C21.6300308,3.97784615 20.8118154,4.46326154 20.1393231,4.74190769 C19.4038154,5.04713846 18.4408615,5.2992 17.4217846,5.56603077 C14.8548923,6.23753846 11.6627692,7.07249231 9.17070769,9.56652308 C6.67766154,12.0576 5.84270769,15.2497231 5.1712,17.8146462 C4.90535385,18.8347077 4.65329231,19.7976615 4.34707692,20.5361231 C4.06941538,21.2046769 3.58498462,22.0219077 3.07101538,22.8854154 C1.70141538,25.1923692 0,28.0566154 0,31.7046154 C0,35.3536 1.70141538,38.2168615 3.06806154,40.5198769 C3.58301538,41.3863385 4.06941538,42.2035692 4.34707692,42.8750769 C4.65329231,43.6125538 4.90535385,44.5755077 5.1712,45.5955692 C5.84270769,48.1595077 6.67667692,51.3516308 9.16972308,53.8456615 C11.6627692,56.3377231 14.8539077,57.1716923 17.4178462,57.8432 C18.4438154,58.112 19.4048,58.3630769 20.1393231,58.6683077 C20.8118154,58.9469538 21.6290462,59.4323692 22.4945231,59.9463385 C24.7965538,61.3139692 27.6617846,63.0153846 31.3097846,63.0153846 C34.9587692,63.0153846 37.824,61.3139692 40.1260308,59.9463385 C40.9954462,59.4304 41.8116923,58.9449846 42.4792615,58.6683077 C43.2157538,58.3630769 44.1757538,58.112 45.1928615,57.8451692 C47.7666462,57.1716923 50.9577846,56.3377231 53.4488615,53.8456615 C55.9419077,51.3526154 56.7768615,48.1614769 57.4483692,45.5975385 C57.7152,44.5755077 57.9682462,43.6125538 58.2734769,42.8760615 C58.5521231,42.2035692 59.0375385,41.3863385 59.5524923,40.5208615 C60.9191385,38.2178462 62.6195692,35.3536 62.6195692,31.7046154 C62.6195692,28.0576 60.9191385,25.1933538 59.5534769,22.8923077 C59.0375385,22.0248615 58.5521231,21.2056615 58.2734769,20.5361231 C57.9682462,19.7986462 57.7152,18.8356923 57.4493538,17.8166154 C56.7768615,15.2487385 55.9419077,12.0576 53.4488615,9.56652308 C50.9577846,7.07249231 47.7656615,6.23753846 45.2007385,5.56701538 C44.1806769,5.30018462 43.2177231,5.04713846 42.4802462,4.74190769 C41.8087385,4.46326154 40.9905231,3.97784615 40.1250462,3.46289231 C37.8230154,2.09624615 34.9587692,0.395815385 31.3097846,0.395815385 C27.6617846,0.395815385 24.7985231,2.09624615 22.4945231,3.46289231 M19.3821538,20.8049231 C18.9607385,20.7005538 18.5314462,20.5627077 18.2065231,20.2722462 C16.8635077,19.0700308 19.0601846,18.2360615 19.9788308,18.0135385 C24.5779692,16.9019077 29.3100308,16.3859692 34.0391385,16.3219692 C36.608,16.2884923 39.2004923,16.3899077 41.6964923,17.0023385 C42.8179692,17.2770462 43.9404308,17.6699077 44.8384,18.3995077 C45.2755692,18.7559385 45.6674462,19.2216615 45.7383385,19.7809231 C45.8082462,20.3392 45.4390154,20.9742769 44.8797538,21.0264615 C44.6907077,21.0441846 44.4947692,20.9998769 44.3017846,20.9555692 C44.0004923,20.8866462 43.7060923,20.8167385 43.4628923,20.9821538 C43.1566769,21.1908923 43.1527385,21.6398769 43.2403692,22.0002462 C43.7553231,24.1033846 46.1105231,25.3233231 46.7593846,27.3910154 C46.8450462,27.6627692 46.8883692,27.9876923 46.7072,28.2082462 C46.5595077,28.3894154 46.3084308,28.4396308 46.0780308,28.4790154 C45.0038154,28.6611692 43.9187692,28.8443077 42.8297846,28.8 C41.7408,28.7566769 40.6311385,28.4672 39.7745231,27.7917538 C38.5260308,26.8081231 37.9933538,25.1815385 36.9959385,23.9438769 C35.9197538,22.6087385 34.3325538,21.7826462 32.6577231,21.3582769 C32.3268923,21.2736 31.9931077,21.2056615 31.6583385,21.1534769 C29.6310154,20.8295385 27.5623385,20.9900308 25.5113846,21.1091692 C24.6980923,21.1564308 23.8788923,21.1958154 23.0616615,21.1958154 C21.8200615,21.1958154 20.5843692,21.1042462 19.3821538,20.8049231 M23.1502769,31.6563692 C22.5614769,31.4939077 21.9441231,31.2900923 21.5473231,30.8253538 C20.7694769,29.9116308 21.1091692,28.2180923 21.8299077,27.3713231 C22.6363077,26.4241231 24.0088615,26.0765538 25.1746462,25.8461538 C27.2472615,25.4385231 29.3632,25.2553846 31.4752,25.2967385 C32.3456,25.3144615 33.2681846,25.3873231 33.9790769,25.8944 C34.8032,26.4822154 35.1556923,27.5160615 35.4599385,28.4819692 C35.5150769,28.6582154 35.5721846,28.8413538 35.5830154,29.0235077 C35.5899077,29.1190154 35.5830154,29.2145231 35.5593846,29.3090462 C35.4914462,29.568 35.2925538,29.7708308 35.0936615,29.9500308 C33.5320615,31.3540923 31.4633846,32.1171692 29.3740308,32.3249231 C28.9368615,32.3692308 28.4987077,32.3889231 28.0605538,32.3889231 C26.4054154,32.3889231 24.7502769,32.0974769 23.1502769,31.6563692 M49.1736615,39.1069538 C49.0496,39.0902154 48.9393231,39.0183385 48.8379077,38.9464615 C48.2648615,38.5457231 47.7174154,38.0859077 47.3472,37.4931692 C46.2798769,35.7799385 46.3773538,32.8280615 47.9773538,31.5017846 C48.0659692,31.4279385 48.1634462,31.3570462 48.2766769,31.3412923 C48.4381538,31.3196308 48.5917538,31.4131692 48.7207385,31.5145846 C49.92,32.4470154 50.3414154,34.0548923 50.5757538,35.5574154 C50.6496,36.0398769 50.7136,36.5331692 50.6850462,37.0185846 C50.6761846,37.1790769 50.6564923,37.3395692 50.6230154,37.4990769 C50.4940308,38.1361231 50.1218462,38.7574154 49.5310769,39.0311385 C49.4375385,39.0764308 49.3351385,39.1108923 49.2327385,39.1108923 C49.2130462,39.1108923 49.1933538,39.1099077 49.1736615,39.1069538 M37.7993846,39.8375385 C37.3858462,39.8355692 36.9624615,39.7991385 36.5597538,39.7056 C35.6361846,39.4889846 34.7155692,39.2497231 33.8077538,38.976 C33.4139077,38.8578462 33.0318769,38.6688 32.6872615,38.4462769 C32.3456,38.2247385 32.2038154,37.8594462 32.2323692,37.44 C32.2540308,37.1288615 32.2668308,36.8177231 32.2845538,36.4888615 C32.2845538,36.1954462 32.2944,35.8833231 32.2825846,35.5712 C32.2668308,35.1369846 32.3958154,34.7431385 32.7099077,34.4576 C33.0397538,34.1572923 33.3971692,33.8697846 33.7880615,33.6610462 C34.7421538,33.152 35.7169231,32.6843077 36.6897231,32.2126769 C37.5512615,31.7932308 38.4462769,31.7056 39.3649231,32.0098462 C40.0797538,32.2461538 40.7926154,32.4913231 41.5015385,32.7443692 C42.3453538,33.0456615 42.8544,33.6108308 42.8760615,34.5462154 C42.8868923,35.0877538 42.9016615,35.6283077 42.9252923,36.1688615 C42.9636923,37.0924308 42.5176615,37.7353846 41.7437538,38.1676308 C40.9856,38.5900308 40.2116923,38.9838769 39.4436923,39.3895385 C38.9326769,39.6593231 38.3901538,39.8375385 37.8121846,39.8375385 C37.8082462,39.8375385 37.8043077,39.8375385 37.7993846,39.8375385 M41.9337846,48.0029538 C41.2731077,47.6760615 40.6321231,47.3088 39.9793231,46.9661538 C39.3324308,46.6264615 39.0843077,46.0957538 39.2713846,45.3937231 C39.4850462,44.5853538 39.7036308,43.7789538 39.9320615,42.9755077 C40.1299692,42.2754462 40.5868308,41.7604923 41.1933538,41.3991385 C42.1504,40.8290462 43.1241846,40.2825846 44.1048615,39.7568 C44.7113846,39.4299077 45.3267692,39.4220308 45.9017846,39.8759385 C46.2631385,40.1595077 46.6333538,40.4322462 47.0055385,40.7000615 C47.6337231,41.1490462 47.8001231,41.7870769 47.7124923,42.5028923 C47.6091077,43.3398154 47.4791385,44.1747692 47.3383385,45.0067692 C47.2073846,45.7737846 46.8194462,46.3812923 46.1292308,46.7702154 C45.4370462,47.1601231 44.7428923,47.5470769 44.0467692,47.9300923 C43.6745846,48.1348923 43.2758154,48.2500923 42.8278154,48.3052308 C42.5284923,48.2077538 42.2124308,48.1417846 41.9337846,48.0029538" id="Fill-1" fill="url(#linearGradient-3)" mask="url(#mask-2)"></path>
                    </g>
                    <g id="Group-25" transform="translate(0.000000, 0.589785)">
                        <path d="M111.895828,15.5325046 C111.242043,15.5521969 110.615828,15.6929969 110.089058,16.0750277 C109.645982,16.3960123 109.326966,16.8558277 109.016812,17.3057969 C105.824689,21.9344738 102.634535,26.5631508 99.4433969,31.1918277 C96.5240123,26.9697969 93.6056123,22.7477662 90.6862277,18.5257354 C90.0452431,17.5982277 89.3796431,16.6461046 88.4324431,16.0336738 C87.8613662,15.6644431 87.1691815,15.4458585 86.4858585,15.4724431 C86.0319508,15.4901662 85.2048738,15.6142277 85.1133046,16.1597046 C85.0473354,16.5525662 85.1054277,17.0005662 85.1044431,17.3993354 C85.1034585,17.83552 85.1024738,18.2726892 85.1014892,18.7108431 C85.09952,19.5851815 85.0985354,20.4585354 85.0975508,21.3338585 C85.0926277,24.8312123 85.0916431,28.3295508 85.0955815,31.8269046 C85.0985354,35.3252431 85.1054277,38.8225969 85.1162585,42.3209354 C85.1172431,42.56512 85.1182277,42.8102892 85.1192123,43.0544738 C86.8964431,43.0525046 88.6746585,43.0505354 90.4528738,43.0485662 C90.4725662,37.9325046 90.4922585,32.8174277 90.5119508,27.7013662 C92.8789662,31.0776123 95.2449969,34.4538585 97.6120123,37.8301046 C98.0875815,38.50752 98.7512123,39.2696123 99.5674585,39.1248738 C100.026289,39.0421662 100.379766,38.6837662 100.688935,38.3332431 C103.520689,35.1135508 105.351089,31.0864738 108.339397,28.01152 C108.365982,33.01632 108.391582,38.0221046 108.418166,43.0278892 C110.209182,43.0278892 111.998228,43.0278892 113.789243,43.0278892 C113.787274,33.9211815 113.786289,24.8154585 113.78432,15.7087508 C113.170905,15.6073354 112.521058,15.5137969 111.895828,15.5325046" id="Fill-4" fill="#000000"></path>
                        <path d="M167.034289,30.8800985 C167.350351,28.3919754 169.473182,26.6718523 172.170043,26.6846523 C174.749735,26.6964677 176.727828,28.40576 176.978905,30.8800985 L167.034289,30.8800985 Z M177.248689,23.5181292 C173.405735,21.4898215 167.981489,22.0658215 164.929182,24.9458215 C161.420997,28.2541292 160.718966,32.3816369 162.149612,36.7858215 C163.585182,41.2037908 167.014597,43.2527754 171.531028,43.5550523 C175.081551,43.79136 178.336689,42.8924062 181.382105,40.8020677 C180.671212,39.5378215 180.012505,38.3671138 179.361674,37.2082215 C172.769674,40.3540677 167.632935,39.3743754 167.051028,34.8904369 L181.93152,34.8904369 C182.041797,34.4808369 182.156012,34.1884062 182.196382,33.8861292 C182.780258,29.5360985 180.798228,25.3918523 177.248689,23.5181292 Z" id="Fill-6" fill="#000000"></path>
                        <path d="M201.952985,22.8613908 C201.100308,22.8416985 200.246646,22.8259446 199.393969,22.8111754 C198.910523,22.8032985 198.400492,22.8023138 197.981046,23.0435446 C197.397169,23.3792985 197.151015,24.0813292 196.9472,24.7232985 C195.744985,28.52096 194.448246,32.2890831 193.058954,36.02176 C191.470769,31.9946831 189.861908,27.9744985 188.234338,23.96416 C188.098462,23.6303754 187.946831,23.2768985 187.647508,23.0799754 C187.358031,22.88896 186.9888,22.8820677 186.6432,22.8820677 C185.775754,22.8820677 184.908308,22.8810831 184.041846,22.8800985 C183.608615,22.8800985 183.1744,22.8791138 182.741169,22.8791138 C182.533415,22.8791138 182.324677,22.8732062 182.116923,22.8791138 C181.875692,22.8850215 181.822523,22.8810831 181.889477,23.1154215 C182.004677,23.5220677 182.246892,23.9287138 182.417231,24.3166523 C182.593477,24.7154215 182.769723,25.11616 182.945969,25.5159138 C183.297477,26.3154215 183.649969,27.1159138 184.002462,27.9154215 C185.410462,31.1144369 186.818462,34.3144369 188.227446,37.5134523 C188.790646,38.7934523 189.354831,40.0724677 189.917046,41.3524677 C190.174031,41.9343754 190.434954,42.53696 190.438892,43.1730215 C190.442831,43.8051446 190.186831,44.41856 189.829415,44.9404062 C188.520862,46.8525292 185.703877,47.5368369 183.662769,46.4389908 C183.368369,47.8735754 183.074954,49.3071754 182.780554,50.74176 C184.878769,51.9075446 187.521477,52.1724062 189.711262,51.1887754 C191.328,50.4621292 192.608,49.1210831 193.552246,47.6205292 C194.496492,46.1199754 195.136492,44.4520369 195.770585,42.7959138 C198.310892,36.16256 200.852185,29.5292062 203.392492,22.8958523 C202.912985,22.8830523 202.432492,22.8722215 201.952985,22.8613908" id="Fill-8" fill="#000000"></path>
                        <path d="M127.161206,38.8032 C123.978929,38.8435692 121.489822,36.2235077 121.526252,32.8718769 C121.560714,29.6886154 124.032098,27.1975385 127.150375,27.2054154 C130.228283,27.2113231 132.740037,29.7762462 132.750868,32.9240615 C132.760714,36.1762462 130.30016,38.7638154 127.161206,38.8032 M127.149391,22.3236923 C120.881329,22.3355077 116.268406,26.8283077 116.25856,32.9299692 C116.248714,39.1212308 120.870498,43.6750769 127.165145,43.6760615 C133.389883,43.6760615 138.035298,39.0385231 138.008714,32.8502154 C137.983114,26.8745846 133.276652,22.3118769 127.149391,22.3236923" id="Fill-10" fill="#000000"></path>
                        <path d="M244.769378,38.8032 C241.613686,38.7549538 239.216148,36.1929846 239.241748,32.8955077 C239.266363,29.7122462 241.726917,27.2113231 244.843225,27.2054154 C247.974302,27.1985231 250.506732,29.8225231 250.465378,33.0313846 C250.42304,36.2776615 247.883717,38.8514462 244.769378,38.8032 M244.938732,22.3236923 C238.670671,22.2951385 234.008517,26.7751385 233.977009,32.8561231 C233.944517,39.0700308 238.523963,43.6455385 244.807778,43.6760615 C251.054178,43.7056 255.68384,39.1458462 255.727163,32.9230769 C255.768517,26.9730462 251.064025,22.3512615 244.938732,22.3236923" id="Fill-12" fill="#000000"></path>
                        <path d="M154.393895,22.7421538 C151.108234,21.7575385 148.075618,22.2695385 145.732234,25.0737231 C145.664295,25.1544615 145.521526,25.1741538 145.363003,25.2460308 C145.327557,24.4494769 145.296049,23.7198769 145.262572,22.9636923 L140.262695,22.9636923 L140.262695,43.0813538 L145.480172,43.0813538 C145.480172,42.5339077 145.479188,42.0573538 145.480172,41.5817846 C145.491003,38.3020308 145.443742,35.0212923 145.532357,31.7444923 C145.607188,29.0052923 147.494695,27.1709538 150.041895,27.1640615 C152.638326,27.1571692 154.260972,28.7965538 154.327926,31.6834462 C154.405711,35.0055385 154.362388,38.3305846 154.371249,41.6546462 C154.372234,42.1243077 154.371249,42.5949538 154.371249,43.0744615 L159.593649,43.0744615 C159.593649,38.4832 159.755126,33.9638154 159.54048,29.4631385 C159.383926,26.2011077 157.634265,23.7129846 154.393895,22.7421538" id="Fill-14" fill="#000000"></path>
                        <path d="M277.298708,29.8080492 C277.174646,26.4997415 275.558892,23.9860185 272.318523,22.7897108 C269.161846,21.6239262 265.826954,22.4598646 263.575138,24.9007262 C263.453046,25.0326646 263.2896,25.1262031 263.082831,25.2847262 C263.041477,24.4162954 263.006031,23.6847262 262.9696,22.93248 L258.019938,22.93248 L258.019938,43.0609723 L263.197046,43.0609723 C263.197046,42.4455877 263.195077,41.9207877 263.197046,41.3979569 C263.213785,38.0738954 263.142892,34.74688 263.274831,31.4287262 C263.3792,28.8293415 265.391754,27.1092185 267.943877,27.1663262 C270.345354,27.22048 271.890215,28.8352492 272.047754,31.4690954 C272.079262,31.9998031 272.085169,32.53248 272.086154,33.0641723 C272.089108,35.9441723 272.088123,38.8251569 272.088123,41.7051569 L272.088123,43.0570338 L277.339077,43.0570338 C277.339077,38.57408 277.463138,34.1856492 277.298708,29.8080492" id="Fill-16" fill="#000000"></path>
                        <polygon id="Fill-18" fill="#000000" points="210.597711 15.7119015 205.215803 15.7119015 205.215803 43.0704246 224.539865 43.0704246 224.539865 37.7968246 210.597711 37.7968246"></polygon>
                        <mask id="mask-5" fill="white">
                            <use xlink:href="#path-4"></use>
                        </mask>
                        <g id="Clip-21"></g>
                        <polygon id="Fill-20" fill="#000000" mask="url(#mask-5)" points="226.670277 43.0798769 231.791262 43.0798769 231.791262 22.9523692 226.670277 22.9523692"></polygon>
                        <path d="M229.255385,14.1527631 C227.375754,14.1645785 225.952985,15.60704 226.012062,17.4413785 C226.070154,19.2451938 227.476185,20.5783631 229.296738,20.5527631 C231.132062,20.5281477 232.444554,19.1841477 232.444554,17.3311015 C232.443569,15.5016862 231.077908,14.1409477 229.255385,14.1527631" id="Fill-22" fill="#000000" mask="url(#mask-5)"></path>
                        <path d="M278.578511,20.2632862 C276.926326,20.2632862 275.721157,18.9685169 275.721157,17.3379938 C275.721157,15.7311015 276.926326,14.4136862 278.555865,14.4136862 C280.186388,14.4136862 281.368911,15.7311015 281.368911,17.36064 C281.368911,18.9685169 280.186388,20.2632862 278.578511,20.2632862 M278.555865,13.6771938 C276.457649,13.6771938 274.782818,15.3067323 274.782818,17.3379938 C274.782818,19.4155323 276.457649,21.0450708 278.555865,21.0450708 C280.677711,21.0450708 282.307249,19.4155323 282.307249,17.3379938 C282.307249,15.3067323 280.677711,13.6771938 278.555865,13.6771938" id="Fill-23" fill="#000000" mask="url(#mask-5)"></path>
                        <path d="M278.400098,17.1825231 L277.998375,17.1825231 L277.998375,16.1329231 C278.086991,16.1102769 278.243545,16.0886154 278.467052,16.0886154 C279.002683,16.0886154 279.248837,16.3121231 279.248837,16.6468923 C279.248837,17.0259692 278.868775,17.1825231 278.400098,17.1825231 M279.404406,17.4503385 L279.404406,17.4060308 C279.851422,17.2711385 280.163545,16.9590154 280.163545,16.5572923 C280.163545,16.1998769 280.006991,15.9094154 279.806129,15.7528615 C279.538314,15.5972923 279.226191,15.4850462 278.534006,15.4850462 C277.930437,15.4850462 277.46176,15.5303385 277.126991,15.5972923 L277.126991,19.2590769 L277.975729,19.2590769 L277.975729,17.7851077 L278.377452,17.7851077 C278.846129,17.7851077 279.069637,17.9633231 279.136591,18.3660308 C279.248837,18.7894154 279.314806,19.1251692 279.427052,19.2590769 L280.342745,19.2590769 C280.253145,19.1251692 280.186191,18.9016615 280.074929,18.3433846 C279.962683,17.8520615 279.761822,17.5842462 279.404406,17.4503385" id="Fill-24" fill="#000000" mask="url(#mask-5)"></path>
                    </g>
                </g>
            </g>
        </g>
    </g>
</svg>