<?xml version="1.0" encoding="utf-8"?>
<!-- Generator: Adobe Illustrator 16.0.0, SVG Export Plug-In . SVG Version: 6.00 Build 0)  -->
<!DOCTYPE svg PUBLIC "-//W3C//DTD SVG 1.1//EN" "http://www.w3.org/Graphics/SVG/1.1/DTD/svg11.dtd">
<svg version="1.1" id="圖層_1" xmlns="http://www.w3.org/2000/svg" xmlns:xlink="http://www.w3.org/1999/xlink" x="0px" y="0px"
	 width="1024px" height="1024px" viewBox="0 0 1024 1024" enable-background="new 0 0 1024 1024" xml:space="preserve">
<g>
	<rect x="79.687" y="84.667" fill-rule="evenodd" clip-rule="evenodd" fill="#0B6FAD" width="859.994" height="860"/>
	<path fill-rule="evenodd" clip-rule="evenodd" fill="#FFFFFF" d="M552.35,392.463c-34.424-22.077-47.536-53.573-51.106-93.402
		c-2-22.103,25.956-24.612,27.943-2.509c2.777,30.974,11.423,55.063,38.29,72.281c17.594,11.29,38.038,18.324,56.167,29.244
		c21.581,12.993,36.991,29.107,47.774,50.762l80.241-20.624l4.645,2.255c14.666,7.109,30.108,22.296,39.531,35.185
		c23.701,32.422,30.091,67.845,27.403,102.776c-2.165,28.151-11.961,37.5-34.9,18.101c-12.77-10.782-12.411-10.438-25.149-21.235
		c-16.95-14.323,1.164-35.738,18.1-21.416l14.203,11.992c-0.165-25.822-6.227-51.194-21.669-72.774
		c-5.989-8.349-15.966-18.922-25.599-25.03l-93.353,23.97l-4.525-11.545c-8.57-21.773-21.236-36.395-41.172-48.386
		C590.834,411.085,570.449,404.082,552.35,392.463 M635.277,325.136l-69.175-132.302c-9.737-18.608,15.383-31.123,24.597-13.5
		l74.7,142.845c8.722,16.682,1.017,23.566-8.96,26.284c-21.549,5.854-31.467,8.557-53.031,14.426
		c-19.906,5.407-29.584-21.042-7.959-26.91C609.502,332.154,621.255,328.958,635.277,325.136z M595.972,563.728
		c0-24.372,9.378-25.328,32.122-16.638c27.39,10.455,41.98,15.847,69.623,25.598c8.453,3.001,16.965,6.019,25.479,8.751l5.913,1.883
		l2.569,5.659c6.316,13.829,9.661,32.871,8.095,47.85c-4.048,39.247-33.454,55.391-69.489,58.885
		c-10.304,0.985-12.32-0.374-17.727-9.214c-6.333-10.32-7.796-12.694-14.127-23.014c-11.604-18.907,12.305-33.587,23.894-14.665
		l11.141,18.13c18.862-3.166,36.187-11.395,38.396-33.02c0.851-8.214-0.702-19.102-3.6-27.882c-6.661-2.226-13.291-4.57-19.922-6.9
		c-21.805-7.721-43.503-15.725-65.143-23.909c-3.047,28.734-13.381,56.183-36.006,75.851
		c-20.685,17.966-47.761,25.792-74.805,25.656c-33.677-0.149-67.399,0-101.075,0c-22.177,0-22.177-28.045,0-28.045
		c33.721,0,67.473-0.15,101.193,0c20.161,0.088,40.815-5.348,56.288-18.788C590.117,611.353,595.972,590.832,595.972,563.728z"/>
	<path fill-rule="evenodd" clip-rule="evenodd" fill="#FFFFFF" d="M218.792,713.904v-36.229c0.088-32.333,4.658-67.397,24.252-94.13
		c24.925-33.976,65.79-43.324,105.873-43.324c16.113,0,52.672-1.121,61.139-18.921c5.391-11.335,0.389-29.48-3.3-40.667
		c-7.079-21.43-17.593-42.606-26.807-63.231c-12.395-27.643-26.806-61.413-26.806-92.072c0-11.709,1.492-23.373,4.494-34.708
		c16.651-63.097,72.192-99.55,135.467-103.493c6.407-0.403,13.486-0.194,19.938-0.225c6.407-0.029,12.799-0.074,19.189-0.074
		c22.192,0,22.192,28.062,0,28.062c-6.347,0-12.693,0.015-19.04,0.06c-6.033,0.029-12.396-0.105-18.34,0.164
		c-51.088,3.196-96.548,31.346-110.094,82.676c-2.375,8.99-3.569,18.264-3.569,27.539c0,25.656,13.964,57.421,24.343,80.617
		c9.663,21.551,20.446,43.459,27.851,65.89c6.392,19.31,11.156,42.264,2.016,61.499c-14.694,30.93-56.54,34.932-86.481,34.932
		c-76.872,0-101.632,37.23-102.064,108.48l-0.016,37.156"/>
	<g>
		<path fill="#FFFFFF" d="M189.976,860.028v9.4h-29.331v-9.4h7.079v-36.857h-7.079v-9.401h29.331c6.824,0,12.104,1.605,15.822,4.802
			c3.718,3.202,5.585,7.511,5.585,12.925c0,3.099-0.656,5.907-1.964,8.423c-1.306,2.516-2.979,4.457-5.024,5.802
			c-2.039,1.345-4.369,2.27-6.996,2.763c-2.629,0.492-5.922,0.74-9.866,0.74h-5.323v10.805H189.976z M182.21,839.941h2.166
			c4.958,0,8.155-0.807,9.581-2.42c1.426-1.612,2.143-3.629,2.143-6.025c0-2.024-0.501-3.756-1.487-5.182
			c-0.985-1.427-2.12-2.308-3.397-2.637c-1.284-0.336-3.375-0.507-6.279-0.507h-2.726V839.941z"/>
		<path fill="#FFFFFF" d="M264.743,869.429v-9.4h6.684v-36.857h-6.684v-9.401h49.064v17.645h-10.65v-8.243h-17.248v12.843h13.934
			v9.409h-13.934v14.605h17.248v-8.327h10.65v17.728H264.743z"/>
		<path fill="#FFFFFF" d="M368.062,869.429v-9.4h7.436v-36.857h-7.436v-9.401h23.371l20.475,34.707v-25.306h-7.242v-9.401h24.969
			v9.401h-7.796v46.653h-12.411l-24.013-41.247v31.451h7.004v9.4H368.062z"/>
		<path fill="#FFFFFF" d="M491.999,869.429v-9.4h8.363v-36.857h-8.363v12.962h-9.557V813.77h50.462v22.363h-9.452v-12.962h-8.603
			v36.857h8.363v9.4H491.999z"/>
		<path fill="#FFFFFF" d="M586.354,869.429v-9.4h8.438v-36.857h-8.438v-9.401h31.451v9.401h-8.528v36.857h8.528v9.4H586.354z"/>
		<path fill="#FFFFFF" d="M670.164,823.171v-9.401h26.566v9.401h-5.479v25.172c0,3.358,0.148,5.786,0.432,7.265
			c0.27,1.478,1.016,2.703,2.211,3.659c1.209,0.956,2.719,1.439,4.569,1.439c1.883,0,3.466-0.454,4.72-1.365
			c1.254-0.904,2.062-2.031,2.419-3.397c0.358-1.358,0.538-4.129,0.538-8.326v-24.446h-5.407v-9.401h22.178v9.401h-6.811v27.851
			c0,3.795-0.194,6.541-0.597,8.259c-0.402,1.725-1.314,3.436-2.762,5.124c-1.436,1.701-3.525,3.076-6.259,4.12
			c-2.732,1.062-5.884,1.584-9.423,1.584c-4.106,0-7.617-0.583-10.499-1.74c-2.897-1.157-5.047-2.696-6.466-4.622
			c-1.42-1.919-2.33-3.824-2.719-5.719c-0.403-1.898-0.613-5.123-0.613-9.685v-25.172H670.164z"/>
		<path fill="#FFFFFF" d="M775.554,869.429v-9.4h7.199v-36.857h-7.199v-9.401h27.912l12.217,32.609l12.275-32.609h28.465v9.401
			h-7.213v36.857h7.213v9.4h-28.016v-9.4h6.72v-36.857h-1.315l-17.248,46.258h-6.003l-17.444-46.258h-1.313v36.857h7.271v9.4
			H775.554z"/>
	</g>
</g>
</svg>
