<?xml version="1.0" encoding="utf-8"?>
<!-- Generator: Adobe Illustrator 22.1.0, SVG Export Plug-In . SVG Version: 6.00 Build 0)  -->
<svg version="1.1" id="Layer_1" xmlns="http://www.w3.org/2000/svg" xmlns:xlink="http://www.w3.org/1999/xlink" x="0px" y="0px"
	 viewBox="0 0 1886.4 1080" style="enable-background:new 0 0 1886.4 1080;" xml:space="preserve">
<style type="text/css">
	.st0{fill:#00D1E7;}
</style>
<g>
	<path class="st0" d="M234.7,521.2h-7.4v10.7h7.4c3.7,0,5.9-2.1,5.9-5.3C240.6,523.3,238.4,521.2,234.7,521.2z"/>
	<path class="st0" d="M1526.6,420.5L1637.4,0h-265l-110.8,420.5H996.7L1107.5,0h-265L731.7,420.5h-82.6L538.3,0h-265l110.8,420.5
		H-1.5v231.4h672.2L557.9,1080h265l112.8-428.1h264.9L1087.8,1080h265l112.8-428.1h420.8V420.5H1526.6z M153.9,540.5h-19.7l-5.3,20
		h-12.4l5.3-20h-12.4l-5.3,20H91.8l5.3-20H65.6v-10.8h18l-5.2-19.7h12.4l5.2,19.7h3.9l5.2-19.7h12.4l-5.2,19.7h12.4l5.2-19.7h12.4
		l-5.2,19.7h16.8V540.5z M183.9,560.6h-13v-50.4h13V560.6z M240.5,560.6l-7.9-17.9h-5.3v17.2c0,0,0,0,0,0v0.7h-0.7H215h-0.7v-0.7
		v-49.6h21.3c11.6,0,18.2,6.7,18.2,16.2c0,6.3-3,11.4-8.3,14.1l9.7,20.1H240.5z M317.5,521.2h-21.4v8.5h17.8v10.8h-17.8v9h21.4v11
		h-34.5v-50.4h34.5V521.2z M382.1,560.6h-35.6v-50.4h13V549h22.5V560.6z M422.9,560.6h-13v-50.4h13V560.6z M493.5,560.6h-12.3
		l-16.1-30v30h-11.9v-50.4h12.5l15.9,29.7v-29.7h11.9V560.6z M558.3,521.2h-21.4v8.5h17.8v10.8h-17.8v9h21.4v11h-34.5v-50.4h34.5
		V521.2z"/>
</g>
</svg>
