<?xml version="1.0" encoding="utf-8"?>
<!-- Generator: Adobe Illustrator 22.1.0, SVG Export Plug-In . SVG Version: 6.00 Build 0)  -->
<svg version="1.1" id="Layer_2" xmlns="http://www.w3.org/2000/svg" xmlns:xlink="http://www.w3.org/1999/xlink" width="140px" height="84px" x="0px" y="0px"
	 viewBox="0 0 688 416.1" style="enable-background:new 0 0 688 416.1;" xml:space="preserve">
<style type="text/css">
	.st0{fill-rule:evenodd;clip-rule:evenodd;fill:#003366;}
</style>
<g>
	<path class="st0" d="M363.6,316c1.2-0.5,2.5-0.9,3.7-1.4c1.2-0.5,2.4-0.9,3.7-1.4c22.7-8.6,45.7-18.5,67.9-29.2
		c-7.4,1.4-17,2.7-28.9,3.9c-15.8,0.6-28.7-3.9-38.8-13.6c-7.1-8.1-11.4-17.8-13-29.1h148.2v-7.6c0-27.5-4.1-48.3-12.4-62.4
		c-8.1-15.8-19.7-28-34.8-36.7c-14.7-8.7-32.1-12.5-52.1-11.5c-25.5-1-47.6,7.7-66.4,26.1c-18.2,19.2-27.3,44.3-27.3,75.4
		c0,20.8,4.8,38.6,14.5,53.3C337.4,297.1,349.3,308.5,363.6,316z M372.2,179.7c9.5-8.7,21.6-13,36.4-13c15.4,0,27.6,4,36.7,12.1
		c9.3,8.3,14.1,19,14.5,32.1H358.2C358.2,198.8,362.9,188.4,372.2,179.7z"/>
	<path class="st0" d="M101.3,278.8C95.6,282.2-7,337.1,8.9,376.3s115.5,42.2,204.7,27.3c117.8-19.6,279.4-67.5,387.7-162.1
		c91-79.5,126.2-167.1-16.4-128.2c13.6-3.5,50.7,9.4,15,64.9C549.4,256.5,372,336.4,262.5,355.9s-164.7,8.9-190.2-17.1
		C45.1,310.9,89.7,288,101.3,278.8z"/>
	<path class="st0" d="M563.3,203.8V56h-44.8v182.9C535.9,227.2,551,215.4,563.3,203.8z"/>
	<polygon class="st0" points="97.3,57.6 154.6,152.1 214.9,57.6 278.8,57.6 185.8,207.8 185.8,324.5 124,324.5 124,207.8 34,57.6 	
		"/>
	<circle class="st0" cx="154.4" cy="40.7" r="36.5"/>
	<path class="st0" d="M305.8,295.4c-11.3-3.4-19.5-7.5-24.5-12.1c-6.1-5.1-9.1-15.2-9.1-30.3v-79.4H314l0.9-44.2h-42.7v-26.8
		L227.9,174l0,84.1c0,12.3,1,22.2,3,29.7c2.4,8.7,6.5,16.4,12.1,23c9.7,10.1,21.9,17.5,36.7,22.1l13.6,4.5l3-0.9l20.6-38.8
		L305.8,295.4z"/>
</g>
</svg>
